<svg version="1.1" width="600" height="150" viewBox="0 0 600 150" xmlns="http://www.w3.org/2000/svg">
 <g transform="matrix(1.4246 0 0 1.4246 18.586 4.1041)" fill="#f9d094" stroke-width=".70196" aria-label="CoffeeLint">
  <path d="m156.05 61.36q-1.5525 3.9002-4.2031 6.6644-2.6506 2.7263-5.7556 4.4682-3.0671 1.704-6.2857 2.4991-3.1807 0.79518-5.8692 0.79518-4.3167 0-7.4974-1.0224t-5.3012-3.2943q-2.0826-2.272-3.1429-5.9071-1.0224-3.6351-1.0224-8.8606 0-2.6506 0.30292-5.7556 0.3408-3.1429 1.0602-6.4751t1.8176-6.7022q1.136-3.3701 2.7263-6.4751 1.5904-3.1429 3.673-5.8692t4.6954-4.7332q2.6127-2.0069 5.7935-3.1429 3.1807-1.1738 7.0052-1.1738 2.6885 0 5.0362 0.60585 2.3856 0.56799 4.1274 1.8176 1.7797 1.2496 2.7642 3.2186 1.0224 1.969 1.0224 4.7332 0 1.5525-0.30293 2.8778-0.26506 1.2874-0.94664 2.2719-0.64372 0.94665-1.704 1.4768-1.0224 0.53012-2.4992 0.53012-0.90878 0-2.1205-0.34079-1.1738-0.34079-2.272-1.6661 0.68158-0.34079 1.3253-1.0602 0.64372-0.75732 1.136-1.704 0.49226-0.98451 0.79519-2.1205 0.30292-1.136 0.30292-2.2719 0-0.90878-0.26506-1.7797-0.22719-0.87091-0.79518-1.5146t-1.4768-1.0224q-0.90878-0.41652-2.1962-0.41652-2.1584 0-4.2031 1.5904-2.0069 1.5904-3.8244 4.3167-1.7797 2.6885-3.2943 6.2857-1.4768 3.5973-2.537 7.611-1.0602 4.0138-1.6661 8.2547t-0.60585 8.179q0 2.6885 0.37865 4.9226 0.41653 2.1962 1.4389 3.7866 1.0602 1.5904 2.8399 2.4991 1.8176 0.87091 4.6575 0.87091 4.5818 0 8.4819-2.0448t6.6265-5.7177z"/>
  <path d="m197.63 45.078q-2.272 2.3855-5.8692 4.0516-3.5972 1.6661-7.8761 2.3855-0.45439 5.3769-2.0826 9.6936-1.5904 4.3167-4.0516 7.346-2.4613 3.0293-5.642 4.6575-3.1807 1.6282-6.7401 1.6282-2.6885 0-4.9983-0.64372-2.272-0.68158-3.938-2.1205-1.6282-1.4768-2.537-3.7866-0.94664-2.3477-0.94664-5.6799 0-2.2719 0.49225-5.1498 0.45439-2.9157 1.4768-5.9828 1.0602-3.0671 2.6885-5.9828 1.6661-2.9535 4.0138-5.2633 2.3856-2.3098 5.4905-3.7108 3.105-1.4389 7.0809-1.4389 9.9587 0 9.9587 12.382v0.07573q0.18933 0.07573 0.3408 0.07573 0.18932 0 0.49225 0 1.3632 0 2.9157-0.37866 1.5904-0.41652 3.1807-1.0602 1.5904-0.64372 3.105-1.4768 1.5146-0.87091 2.7642-1.7418zm-20.182 6.6644q-1.2117-0.30293-1.6661-1.1738-0.41653-0.90878-0.41653-2.0826 0-1.6282 0.64372-2.6506 0.68159-1.0602 1.7797-1.5525-0.0757-1.2496-0.26507-2.0826-0.18932-0.87091-0.53012-1.401-0.34079-0.56799-0.87091-0.79518-0.49226-0.2272-1.2874-0.2272-1.401 0-2.6885 1.0981-1.2874 1.0602-2.4613 2.8399-1.136 1.7797-2.1205 4.0895-0.94664 2.272-1.6282 4.6954-0.68158 2.4234-1.0602 4.809-0.37866 2.3477-0.37866 4.2788t0.18933 3.1429q0.2272 1.2117 0.68159 1.9312 0.49225 0.68158 1.2496 0.94665 0.75731 0.26506 1.8554 0.26506 1.401 0 2.8021-1.2496 1.4389-1.2496 2.6506-3.4079 1.2117-2.1584 2.1205-5.1119 0.94664-2.9535 1.401-6.3615z"/>
  <path d="m222.85 38.868-8.7849 41.88q-0.83305 4.1652-2.4613 6.7401-1.5904 2.5749-3.5594 4.0138-1.969 1.4389-4.0895 1.9312-2.1205 0.49226-4.0138 0.49226-3.3322 0-5.377-1.3253-2.0448-1.2874-2.9914-3.5594-1.136 1.4768-2.4613 2.4234-1.2874 0.94665-2.6506 1.4768-1.3632 0.56799-2.7263 0.75732-1.401 0.2272-2.6885 0.2272-1.7418 0-3.3701-0.60585-1.6661-0.60585-2.9535-1.704-1.2874-1.0981-2.0448-2.6506-0.79519-1.5146-0.79519-3.4079 0-2.6885 1.0602-4.5439 1.0224-1.8176 2.8399-3.1429 1.8176-1.2874 4.2788-2.1962 2.4234-0.90878 5.2255-1.7418l9.315-44.303q0.83304-4.1652 2.4234-6.7401 1.6282-2.5749 3.5972-4.0138 1.969-1.4389 4.0895-1.9312 2.1205-0.49226 4.0138-0.49226 1.2874 0 2.537 0.34079 1.2874 0.34079 2.3477 0.98451 1.0981 0.60585 1.969 1.5146 0.87092 0.90878 1.4389 2.0448 1.1738-1.4768 2.4992-2.4234 1.3253-0.94665 2.6885-1.4768 1.3632-0.56799 2.7263-0.75732 1.401-0.2272 2.6885-0.2272 1.7418 0 3.3701 0.60585 1.6661 0.60585 2.9535 1.704 1.2874 1.0981 2.0448 2.6506 0.79518 1.5146 0.79518 3.4079 0 1.8176-0.22719 3.1807h-3.6351q0.0757-0.64372 0.1136-1.0981t0.0379-0.98451q0-1.3253-0.90878-1.969-0.87091-0.68158-2.0448-0.68158-0.64372 0-1.3632 0.2272t-1.4389 0.90878q-0.71945 0.64372-1.3632 1.8554t-1.0981 3.1429l-1.401 6.3615h7.7625l-0.71945 3.105zm-11.246 0h-7.6868l-6.8916 32.792 7.9518-1.401zm-7.0052 33.284-7.9897 1.4389-1.4768 7.1566q-0.30293 1.3253-0.68159 2.537-0.37865 1.2117-0.79518 2.1962 0.53012 0.94665 1.704 1.2496 1.2117 0.30293 2.8021 0.30293 0.60586 0 1.2496-0.30293 0.64371-0.26506 1.2496-0.98451 0.64372-0.68158 1.1738-1.8554 0.53012-1.1738 0.90878-2.9157zm8.9363-42.523 0.45439-2.0069q0.0757-0.45439 0.11359-0.83305 0.0379-0.41652 0.0379-0.87091 0-1.3253-0.90878-1.969-0.87091-0.68158-2.0448-0.68158-0.64372 0-1.3632 0.2272t-1.4389 0.90878q-0.71945 0.64372-1.3632 1.8554t-1.0981 3.1429l-1.401 6.3615h7.6868zm-28.324 46.84q-1.8176 0.60585-3.3701 1.3253-1.5904 0.75732-2.7263 1.704-1.1738 0.98451-1.8176 2.1962-0.68159 1.2117-0.68159 2.7642 0 0.45439 0.2272 0.90878 0.22719 0.45439 0.64372 0.79518 0.41652 0.37866 0.98451 0.60585 0.56798 0.26506 1.2496 0.26506 0.60585 0 1.2496-0.30293 0.64372-0.26506 1.2874-0.98451 0.60585-0.68158 1.136-1.8554 0.53013-1.1738 0.90878-2.9157z"/>
  <path d="m259.88 60.641q-1.6282 2.7263-3.7487 5.3012-2.0826 2.5749-4.7332 4.5818-2.6127 2.0069-5.8313 3.2565-3.1807 1.2117-7.0052 1.2117-2.7642 0-4.9983-0.68158-2.2341-0.71945-3.8244-2.1962-1.5904-1.4768-2.4234-3.7866-0.87091-2.3477-0.87091-5.642 0-2.2341 0.45439-5.1498 0.45439-2.9157 1.4389-5.9828 0.98451-3.0671 2.6127-6.0207t3.938-5.2633q2.3098-2.3477 5.4148-3.7487 3.105-1.4389 7.0809-1.4389 2.6127 0 4.241 0.64372 1.6661 0.60585 2.6127 1.6282 0.98452 1.0224 1.3253 2.3855 0.37866 1.3253 0.37866 2.7642 0 3.3701-1.4768 6.2857-1.4768 2.8778-3.9759 5.0362-2.4613 2.1584-5.6799 3.4837-3.2186 1.3253-6.7022 1.5525-0.0757 0.87091-0.15146 1.6661-0.0379 0.75732-0.0379 1.4389 0 1.969 0.3408 3.2565 0.37866 1.2496 1.0602 1.969 0.71945 0.71945 1.7418 1.0224 1.0602 0.26506 2.4613 0.26506 2.3098 0 4.1652-0.60585 1.8933-0.60585 3.5215-1.6661t3.0671-2.4991q1.4768-1.4389 2.9535-3.0671zm-21.167-5.4905q2.1962-0.15146 4.241-1.2496 2.0448-1.0981 3.5972-2.8399 1.5525-1.7797 2.4613-4.0138 0.94665-2.2719 0.94665-4.6954 0-1.4389-0.41653-2.3098-0.41652-0.87091-1.5146-0.87091-1.4768 0-2.9157 1.4389-1.401 1.401-2.6506 3.673-1.2496 2.2719-2.2341 5.1498-0.94665 2.8399-1.5146 5.7177z"/>
  <path d="m281.58 63.518q-0.60585 3.3701-1.8933 5.5663-1.2874 2.1962-3.0671 3.5215-1.7797 1.3253-3.938 1.8554-2.1584 0.53012-4.506 0.53012-2.7263 0-4.9604-0.68158-2.1962-0.71945-3.7866-2.1962-1.5525-1.4768-2.4234-3.7866-0.87091-2.3477-0.87091-5.642 0-2.2341 0.45439-5.1498 0.45439-2.9157 1.4389-5.9828 0.98451-3.0671 2.6127-6.0207t3.938-5.2633q2.3098-2.3477 5.4148-3.7487 3.105-1.4389 7.0809-1.4389 2.6127 0 4.241 0.64372 1.6661 0.60585 2.6127 1.6282 0.98451 1.0224 1.3253 2.3855 0.37866 1.3253 0.37866 2.7642 0 3.3701-1.4768 6.2857-1.4768 2.8778-3.9759 5.0362-2.4613 2.1584-5.6799 3.4837-3.2186 1.3253-6.7022 1.5525-0.0757 0.64372-0.15146 1.2496-0.0379 0.56799-0.0379 1.0981 0 1.8554 0.37866 3.105t1.0224 2.0069q0.64371 0.71945 1.5146 1.0224 0.87091 0.30293 1.8933 0.30293 1.136 0 2.3477-0.34079 1.2496-0.34079 2.4234-0.90878 1.2117-0.56799 2.3477-1.2874 1.136-0.75732 2.0448-1.5904zm-13.253-8.3683q2.2341-0.07573 4.2788-1.1738 2.0448-1.136 3.5972-2.8778 1.5904-1.7797 2.4992-4.0516 0.94664-2.2719 0.94664-4.6954 0-1.4389-0.41652-2.3098-0.41653-0.87091-1.5146-0.87091-1.4768 0-2.9157 1.4768-1.401 1.4389-2.6506 3.7487-1.2117 2.3098-2.2341 5.1498-0.98452 2.8399-1.5904 5.6041z"/>
  <path d="m304.15 22.661q-5.1498 2.1205-7.9897 6.3615-2.8399 4.2031-2.8399 10.527 0 1.4768 0.15146 2.4234 0.18933 0.90878 0.37866 1.4768 0.18933 0.56799 0.34079 0.87091 0.18933 0.30293 0.18933 0.53012-2.0069 0-3.5594-0.37866-1.5525-0.41652-2.6127-1.2874-1.0224-0.90878-1.5904-2.3477-0.53013-1.4389-0.53013-3.5215 0-2.5749 1.0981-5.074 1.136-2.4991 3.0671-4.7332 1.969-2.2341 4.5818-4.1274 2.6506-1.9312 5.642-3.2943 3.0293-1.401 6.2857-2.1584 3.2943-0.79518 6.5508-0.79518 0.87091 0 1.5904 0.07573 0.75732 0.03787 1.5146 0.1136l-11.928 55.663q2.0069 0.45439 4.0138 1.401 2.0448 0.90878 4.1274 2.0069 2.0826 1.136 4.2031 2.272 2.1584 1.1738 4.3546 2.1205 2.2341 0.98451 4.5439 1.5904 2.3477 0.60585 4.809 0.60585 1.5904 0 3.1807-0.26506 1.6282-0.26506 3.3322-0.98451-0.34079 2.8021-1.0602 5.0362-0.68159 2.272-1.704 3.8623-1.0224 1.5904-2.3855 2.4234-1.3253 0.87091-2.9157 0.87091-2.7642 0-5.4527-1.3253-2.6885-1.2874-5.4148-3.2565-2.6885-1.9312-5.4527-4.241-2.7642-2.2719-5.6799-4.241-2.9157-1.9312-6.0585-3.2565-3.105-1.2874-6.5508-1.2874-0.45439 0-0.87092 0-0.41652 0-0.90878 0.07573z"/>
  <path d="m334.18 25.463q0 1.2874-0.49226 2.4234-0.49225 1.0981-1.3632 1.9312-0.83304 0.79518-1.969 1.2874-1.0981 0.45439-2.3855 0.45439-1.2874 0-2.4234-0.45439-1.0981-0.49226-1.9312-1.2874-0.83305-0.83305-1.3253-1.9312-0.45439-1.136-0.45439-2.4234t0.45439-2.3855q0.49226-1.136 1.3253-1.969 0.83304-0.87091 1.9312-1.3632 1.136-0.49226 2.4234-0.49226 1.2874 0 2.3855 0.49226 1.136 0.49226 1.969 1.3632 0.87092 0.83305 1.3632 1.969 0.49226 1.0981 0.49226 2.3855zm4.809 35.177q-1.0981 3.1429-2.4613 5.4527-1.3253 2.3098-2.8021 3.9002-1.4389 1.5904-2.9914 2.5749-1.5146 0.98451-2.9535 1.5146-1.4389 0.53012-2.7642 0.71945-1.2874 0.18933-2.3098 0.18933-1.7418 0-3.2565-0.53012-1.5146-0.53012-2.6506-1.6661-1.0981-1.136-1.7418-2.8778t-0.64372-4.2031q0-1.0602 0.15146-2.3098 0.15147-1.2874 0.45439-2.7642l5.2634-24.878h11.17l-5.5663 26.355q-0.18933 0.64372-0.26507 1.2874-0.0379 0.60585-0.0379 1.2117 0 1.6282 0.75732 2.2719 0.75731 0.60585 2.3855 0.60585 1.136 0 2.1962-0.49226 1.0981-0.53012 2.0069-1.4389 0.90878-0.90878 1.6282-2.1584 0.71945-1.2874 1.1738-2.7642z"/>
  <path d="m378.14 60.641q-1.6282 4.7711-3.5215 7.611-1.8554 2.8399-3.7866 4.3546-1.8933 1.4768-3.7487 1.9312-1.8176 0.45439-3.3701 0.45439-2.5749 0-4.3167-0.71945-1.7418-0.75732-2.8021-1.969-1.0602-1.2496-1.5525-2.8021-0.45439-1.5904-0.45439-3.2565 0-1.969 0.53013-4.5818 0.56798-2.6506 1.2117-5.4148t1.1738-5.3391q0.56799-2.5749 0.56799-4.4303 0-3.9759-2.8021-3.9759-1.0602 0-1.969 0.56799-0.90878 0.56799-1.6661 1.5525-0.75732 0.94665-1.3632 2.272-0.60585 1.2874-1.0602 2.7642l-5.2634 24.878h-11.17l8.2169-38.775h11.17l-0.83305 4.0138q1.2496-1.401 2.4613-2.2341 1.2496-0.87091 2.4234-1.3253t2.1962-0.60585q1.0602-0.15146 1.969-0.15146 1.8554 0 3.4458 0.49226 1.5904 0.49226 2.7263 1.5525 1.1738 1.0602 1.8176 2.7263t0.64372 3.9759q0 1.5525-0.30292 3.3701-0.26507 1.7797-0.68159 3.673-0.41652 1.8554-0.90878 3.7108-0.45439 1.8554-0.87091 3.5594-0.41653 1.704-0.71945 3.1807-0.26506 1.4389-0.26506 2.537 0 1.4389 0.64371 2.3477 0.68159 0.90878 2.4613 0.90878 1.2496 0 2.1962-0.49226 0.94665-0.49226 1.704-1.401 0.75732-0.90878 1.3632-2.1584 0.64372-1.2874 1.2496-2.8021z"/>
  <path d="m379.84 38.868h-2.5749l0.64372-3.105h2.537l2.3477-10.716 11.473-1.5525q-0.18933 0.75732-0.37866 1.6661-0.18933 0.87091-0.37866 1.8554-0.41652 1.6282-0.90878 3.9002-0.45439 2.2341-0.98451 4.8468h4.6575l-0.60585 3.105h-4.6575l-4.9604 23.25q-0.18933 0.75732-0.30293 1.4768-0.0757 0.68158-0.0757 1.2496 0 1.2117 0.53012 2.0069 0.56799 0.79518 2.1584 0.79518 0.41653 0 0.98451 0 0.56799-0.03787 1.0602-0.2272-0.87092 2.4991-1.8933 4.0138-1.0224 1.4768-2.0826 2.2719-1.0602 0.79518-2.1584 1.0224-1.0602 0.26506-2.0826 0.26506-2.0826 0-3.5594-0.64372-1.4768-0.68158-2.4234-1.8554-0.90878-1.1738-1.3253-2.7642-0.45439-1.6282-0.45439-3.4837 0-2.0069 0.45439-4.1274z"/>
 </g>
 <g transform="matrix(1.5687 0 0 1.5687 -4.3896 -6.1013)" stroke-linecap="round" stroke-width=".63747">
  <g fill="#f9d094" stroke-linejoin="bevel" stroke-width="22.949">
   <path d="m38.105 41.353c-3.9266 4.7795-6.2221 11.072-6.2343 17.705 0.0015 14.606 10.519 26.096 23.247 26.293-0.72497-7.0794-2.6623-24.342-5.4694-37.461-4.4665-1.0741-8.5032-3.3251-11.543-6.5373z" color="#000000" style="-inkscape-stroke:none;paint-order:markers fill stroke"/>
   <path d="m74.248 41.353c3.9266 4.7795 6.2221 11.072 6.2343 17.705-0.0015 14.606-10.519 26.096-23.247 26.293 0.72498-7.0794 2.6623-24.342 5.4694-37.461 4.4665-1.0741 8.5032-3.3251 11.543-6.5373z" color="#000000" style="-inkscape-stroke:none;paint-order:markers fill stroke"/>
  </g>
  <g fill="#cf8b54">
   <path d="m40.621 10.73c-0.0536 0.0089-0.12429 0.04569-0.2168 0.11328-3.8957 4.9159-0.86286 11.585 1.7422 12.594-2.2991 2.2512-3.5796 5.009-3.6348 7.8652 8e-3 16.88 35.628 16.464 35.328 0-0.0551-2.8563-1.3357-5.6141-3.6348-7.8652 2.605-1.0087 5.6379-7.6779 1.7422-12.594-0.0925-0.06759-0.16318-0.10438-0.2168-0.11328-0.37536-0.06248 0.0642 1.2723-0.6289 3.4629-0.85776 3.6332-3.1294 5.0176-4.8672 6.2246-6.1435-2.9328-14.177-3.2679-20.117 0-1.7378-1.2071-4.0094-2.5914-4.8672-6.2246-0.69311-2.1906-0.25354-3.5254-0.62891-3.4629z" color="#000000" style="-inkscape-stroke:none"/>
   <path d="m28.072 56.124c-2.221-0.46071-6.767-0.37302-11.489 3.6252-4.722 3.9982-6.8888 11.072-4.1332 13.344 2.669-5.9184 8.989-9.7466 15.97-10.064-0.0076-0.03437-0.01527-0.06875-0.02281-0.10314-0.34623-2.2542-0.45518-4.5367-0.32469-6.8022z" color="#000000" style="-inkscape-stroke:none"/>
   <path d="m30.032 71.076c-2.1692 0.66301-6.1141 2.9241-8.3344 8.6993-2.2204 5.7752-0.72212 13.02 2.7861 13.689-0.5027-6.4729 3.2008-12.867 9.1706-16.499-0.02322-0.02646-0.04642-0.05295-0.06956-0.0795-1.3867-1.8106-2.5788-3.7601-3.5528-5.8097z" color="#000000" style="-inkscape-stroke:none"/>
   <path d="m29.009 48.837c-2.2537-0.25623-6.5448-1.7598-9.7813-7.0332-3.2365-5.2734-3.0849-12.67 0.2426-13.967 0.68638 6.456 5.494 12.067 12.026 14.549-0.01799 0.03026-0.03599 0.06053-0.0539 0.09085-1.0332 2.0332-1.8497 4.1674-2.4336 6.3602z" color="#000000" style="-inkscape-stroke:none"/>
   <path d="m84.281 56.124c2.221-0.46071 6.767-0.37302 11.489 3.6252 4.722 3.9982 6.8888 11.072 4.1332 13.344-2.669-5.9184-8.989-9.7466-15.97-10.064 8e-3 -0.03437 0.0153-0.06875 0.0228-0.10314 0.34623-2.2542 0.45518-4.5367 0.32469-6.8022z" color="#000000" style="-inkscape-stroke:none"/>
   <path d="m82.321 71.076c2.1692 0.66301 6.1141 2.9241 8.3344 8.6993 2.2204 5.7752 0.72212 13.02-2.7861 13.689 0.5027-6.4729-3.2008-12.867-9.1706-16.499 0.02322-0.02646 0.04642-0.05295 0.06956-0.0795 1.3867-1.8106 2.5788-3.7601 3.5528-5.8097z" color="#000000" style="-inkscape-stroke:none"/>
   <path d="m83.344 48.837c2.2537-0.25623 6.5448-1.7598 9.7813-7.0332 3.2365-5.2734 3.0849-12.67-0.24259-13.967-0.68639 6.456-5.494 12.067-12.026 14.549 0.01799 0.03026 0.03599 0.06053 0.0539 0.09085 1.0332 2.0332 1.8497 4.1674 2.4336 6.3602z" color="#000000" style="-inkscape-stroke:none"/>
  </g>
 </g>
</svg>
