<svg version="1.1" viewBox="0 0 500 500" xmlns="http://www.w3.org/2000/svg">
 <g transform="matrix(5.3627 0 0 5.3627 -51.26 -29.377)" stroke-linecap="round" stroke-width=".18647">
  <g fill="#f9d094" stroke-linejoin="bevel" stroke-width="6.713">
   <path d="m38.105 41.353c-3.9266 4.7795-6.2221 11.072-6.2343 17.705 0.0015 14.606 10.519 26.096 23.247 26.293-0.72497-7.0794-2.6623-24.342-5.4694-37.461-4.4665-1.0741-8.5032-3.3251-11.543-6.5373z" color="#000000" style="-inkscape-stroke:none;paint-order:markers fill stroke"/>
   <path d="m74.248 41.353c3.9266 4.7795 6.2221 11.072 6.2343 17.705-0.0015 14.606-10.519 26.096-23.247 26.293 0.72498-7.0794 2.6623-24.342 5.4694-37.461 4.4665-1.0741 8.5032-3.3251 11.543-6.5373z" color="#000000" style="-inkscape-stroke:none;paint-order:markers fill stroke"/>
  </g>
  <g fill="#cf8b54">
   <path d="m40.621 10.73c-0.0536 0.0089-0.12429 0.04569-0.2168 0.11328-3.8957 4.9159-0.86286 11.585 1.7422 12.594-2.2991 2.2512-3.5796 5.009-3.6348 7.8652 8e-3 16.88 35.628 16.464 35.328 0-0.0551-2.8563-1.3357-5.6141-3.6348-7.8652 2.605-1.0087 5.6379-7.6779 1.7422-12.594-0.0925-0.06759-0.16318-0.10438-0.2168-0.11328-0.37536-0.06248 0.0642 1.2723-0.6289 3.4629-0.85776 3.6332-3.1294 5.0176-4.8672 6.2246-6.1435-2.9328-14.177-3.2679-20.117 0-1.7378-1.2071-4.0094-2.5914-4.8672-6.2246-0.69311-2.1906-0.25354-3.5254-0.62891-3.4629z" color="#000000" style="-inkscape-stroke:none"/>
   <path d="m28.072 56.124c-2.221-0.46071-6.767-0.37302-11.489 3.6252-4.722 3.9982-6.8888 11.072-4.1332 13.344 2.669-5.9184 8.989-9.7466 15.97-10.064-0.0076-0.03437-0.01527-0.06875-0.02281-0.10314-0.34623-2.2542-0.45518-4.5367-0.32469-6.8022z" color="#000000" style="-inkscape-stroke:none"/>
   <path d="m30.032 71.076c-2.1692 0.66301-6.1141 2.9241-8.3344 8.6993-2.2204 5.7752-0.72212 13.02 2.7861 13.689-0.5027-6.4729 3.2008-12.867 9.1706-16.499-0.02322-0.02646-0.04642-0.05295-0.06956-0.0795-1.3867-1.8106-2.5788-3.7601-3.5528-5.8097z" color="#000000" style="-inkscape-stroke:none"/>
   <path d="m29.009 48.837c-2.2537-0.25623-6.5448-1.7598-9.7813-7.0332-3.2365-5.2734-3.0849-12.67 0.2426-13.967 0.68638 6.456 5.494 12.067 12.026 14.549-0.01799 0.03026-0.03599 0.06053-0.0539 0.09085-1.0332 2.0332-1.8497 4.1674-2.4336 6.3602z" color="#000000" style="-inkscape-stroke:none"/>
   <path d="m84.281 56.124c2.221-0.46071 6.767-0.37302 11.489 3.6252 4.722 3.9982 6.8888 11.072 4.1332 13.344-2.669-5.9184-8.989-9.7466-15.97-10.064 8e-3 -0.03437 0.0153-0.06875 0.0228-0.10314 0.34623-2.2542 0.45518-4.5367 0.32469-6.8022z" color="#000000" style="-inkscape-stroke:none"/>
   <path d="m82.321 71.076c2.1692 0.66301 6.1141 2.9241 8.3344 8.6993 2.2204 5.7752 0.72212 13.02-2.7861 13.689 0.5027-6.4729-3.2008-12.867-9.1706-16.499 0.02322-0.02646 0.04642-0.05295 0.06956-0.0795 1.3867-1.8106 2.5788-3.7601 3.5528-5.8097z" color="#000000" style="-inkscape-stroke:none"/>
   <path d="m83.344 48.837c2.2537-0.25623 6.5448-1.7598 9.7813-7.0332 3.2365-5.2734 3.0849-12.67-0.24259-13.967-0.68639 6.456-5.494 12.067-12.026 14.549 0.01799 0.03026 0.03599 0.06053 0.0539 0.09085 1.0332 2.0332 1.8497 4.1674 2.4336 6.3602z" color="#000000" style="-inkscape-stroke:none"/>
  </g>
 </g>
</svg>
